<svg width="25" height="24" viewBox="0 0 25 24" fill="none" xmlns="http://www.w3.org/2000/svg">
<path d="M12.947 6.51484C13.8302 6.51484 14.9372 5.91777 15.5965 5.12168C16.1936 4.40022 16.6289 3.39267 16.6289 2.38512C16.6289 2.24829 16.6165 2.11146 16.5916 1.99951C15.6089 2.03683 14.4272 2.65877 13.7182 3.49218C13.1585 4.12657 12.6485 5.12168 12.6485 6.14167C12.6485 6.29094 12.6733 6.4402 12.6858 6.48996C12.748 6.5024 12.8475 6.51484 12.947 6.51484ZM9.83727 21.5659C11.0438 21.5659 11.5787 20.7574 13.0838 20.7574C14.6138 20.7574 14.9497 21.541 16.2931 21.541C17.6116 21.541 18.4948 20.322 19.3282 19.1279C20.2611 17.7596 20.6467 16.4162 20.6716 16.354C20.5845 16.3291 18.0594 15.2967 18.0594 12.3984C18.0594 9.88578 20.0496 8.75384 20.1616 8.66677C18.843 6.77605 16.8404 6.7263 16.2931 6.7263C14.8128 6.7263 13.6063 7.6219 12.8475 7.6219C12.0265 7.6219 10.9443 6.77605 9.66313 6.77605C7.2251 6.77605 4.74976 8.79116 4.74976 12.5975C4.74976 14.9609 5.67023 17.4611 6.80218 19.0781C7.77241 20.4464 8.61826 21.5659 9.83727 21.5659Z" fill="#fff"/>
</svg>
