<svg width="24" height="17" viewBox="0 0 24 17" fill="none" xmlns="http://www.w3.org/2000/svg">
<rect x="19.0566" width="2" height="22" rx="1" transform="rotate(45 19.0566 0)" fill="black"/>
<path d="M20.3037 4.33402C21.6369 5.42401 22.7965 6.81176 23.6846 8.49906C20.7071 14.1563 14.6888 16.456 9.23926 15.3985L11.0205 13.6172C14.9386 13.8942 18.9811 12.1897 21.3701 8.49906C20.6678 7.41407 19.8218 6.5009 18.8789 5.75883L20.3037 4.33402ZM0 8.49906C2.99393 2.81063 9.06193 0.516665 14.5352 1.61722L12.7656 3.38675C8.81587 3.07272 4.72413 4.77648 2.31445 8.49906C3.03177 9.60721 3.89891 10.5357 4.86621 11.2862L3.44043 12.712C2.08217 11.6148 0.901233 10.2114 0 8.49906ZM18.6357 3.17386L17.1631 4.64652H17.1621L18.6348 3.17386H18.6357Z" fill="black"/>
</svg>
