<svg width="25" height="24" viewBox="0 0 25 24" fill="none" xmlns="http://www.w3.org/2000/svg">
<path fill-rule="evenodd" clip-rule="evenodd" d="M20.8893 12.2047C20.8893 11.5665 20.832 10.9529 20.7256 10.3638H12.2493V13.8451H17.0929C16.8843 14.9701 16.2502 15.9233 15.297 16.5615V18.8197H18.2056C19.9074 17.2529 20.8893 14.9456 20.8893 12.2047Z" fill="#fff"/>
<path fill-rule="evenodd" clip-rule="evenodd" d="M12.25 21C14.68 21 16.7173 20.1941 18.2064 18.8195L15.2977 16.5613C14.4918 17.1013 13.4609 17.4204 12.25 17.4204C9.90591 17.4204 7.92182 15.8372 7.21409 13.71H4.20728V16.0418C5.68818 18.9831 8.73182 21 12.25 21Z" fill="#fff"/>
<path fill-rule="evenodd" clip-rule="evenodd" d="M7.21336 13.7098C7.03336 13.1698 6.93109 12.593 6.93109 11.9998C6.93109 11.4066 7.03336 10.8298 7.21336 10.2898V7.95801H4.20654C3.59699 9.17301 3.24927 10.5476 3.24927 11.9998C3.24927 13.4521 3.59699 14.8266 4.20654 16.0416L7.21336 13.7098Z" fill="#fff"/>
<path fill-rule="evenodd" clip-rule="evenodd" d="M12.25 6.57955C13.5714 6.57955 14.7577 7.03364 15.6905 7.92545L18.2718 5.34409C16.7132 3.89182 14.6759 3 12.25 3C8.73182 3 5.68818 5.01682 4.20728 7.95818L7.21409 10.29C7.92182 8.16273 9.90591 6.57955 12.25 6.57955Z" fill="#fff"/>
</svg>
