<svg version="1.1" xmlns="http://www.w3.org/2000/svg" x="0px" y="0px" viewBox="0 0 256 256" enable-background="new 0 0 256 256" xml:space="preserve">
<g><g><path fill="#6361f3"  d="M187,17.9L175.4,38c7.2,4.1,13.7,9.2,19.6,15.1c8.7,8.7,15.6,18.9,20.3,30.1c4.9,11.7,7.4,24.1,7.4,36.9c0,12.8-2.5,25.2-7.4,36.9c-4.8,11.3-11.6,21.4-20.3,30.1c-8.7,8.7-18.9,15.6-30.2,20.3c-11.7,5-24.1,7.5-36.9,7.5c-12.8,0-25.2-2.5-36.9-7.4c-11.3-4.8-21.4-11.6-30.2-20.3S45.4,168.3,40.6,157c-4.9-11.7-7.4-24.1-7.4-36.9c0-8.3,1.1-16.4,3.1-24.3c2-7.6,5-15,8.9-21.9C52.8,60.2,63.8,48.6,77,40.2c1.2-0.7,2.4-1.5,3.6-2.2L69,17.9c-1.5,0.9-3,1.8-4.5,2.7C31.7,41.6,10,78.3,10,120.1c0,65.2,52.8,118,118,118c65.2,0,118-52.8,118-118C246,76.4,222.3,38.3,187,17.9z"/></g></g>
</svg>